<svg width="14" height="12" viewBox="0 0 14 12" fill="none" xmlns="http://www.w3.org/2000/svg">
<path fill-rule="evenodd" clip-rule="evenodd" d="M7 1.34766C7 0.605469 7.61719 0 8.35938 0H12.6406C13.3828 0 14 0.605469 14 1.34766V9.64453C14 10.3867 13.3828 10.9922 12.6406 10.9922H10.5898C10.5586 10.9961 10.5312 11 10.5 11H8C7.10962 11.0098 6.28955 11.2596 5.47729 11.5072C4.66455 11.7548 3.85962 12 3 12C1.72656 12 0.101562 11.4805 0.101562 11.4805L0.398438 10.5195C0.398438 10.5195 2.02344 11 3 11C3.56543 11 4.19263 10.809 4.89893 10.5939C5.79272 10.3217 6.81323 10.0109 7.99609 10H8H8.35938V9.99219H9.76953C9.74878 9.9447 9.74683 9.91907 9.73901 9.88928C9.73218 9.86267 9.7207 9.83289 9.6875 9.78125C9.41406 9.39062 8.98438 9 8 9H5.875V8H7V5H6.79688L3.26562 7.79297C3.24731 7.80872 3.22705 7.82275 3.20508 7.83496C3.19434 7.84094 3.18335 7.84644 3.17188 7.85156C2.96875 7.94922 2.74609 8 2.52344 8H0V7H2.52344C2.58594 7 2.65234 6.98047 2.71094 6.95312L6.3125 4.10938C6.40234 4.03906 6.51172 4 6.625 4H7V1.34766ZM12 1H9C9 1.55469 8.55078 2 8 2V8C8.91797 8 9.58594 8.32031 10.0508 8.71875C10.0312 8.68188 10.0176 8.64258 10.0095 8.60144C10.0029 8.5686 10 8.53467 10 8.5C10 8.22266 10.2227 8 10.5 8C10.7773 8 11 8.22266 11 8.5C11 8.77734 10.7773 9 10.5 9C10.4219 9 10.3438 8.98047 10.2773 8.94922L10.3328 9.00903C10.3677 9.04663 10.4033 9.08484 10.4368 9.12378C10.4636 9.15503 10.489 9.18665 10.5117 9.21875C10.5906 9.33521 10.6562 9.45105 10.7114 9.56262C10.7876 9.7168 10.8438 9.86304 10.8867 9.99219H12C12.0078 9.44531 12.4492 9 13 9V2C12.4492 2 12 1.55469 12 1ZM10.4648 2C10.2031 2.01953 10 2.23828 10 2.5C10 2.77734 10.2227 3 10.5 3C10.7773 3 11 2.77734 11 2.5C11 2.22656 10.7773 2 10.5 2H10.4648ZM9 5.5C9 4.67188 9.67188 4 10.5 4C11.3281 4 12 4.67188 12 5.5C12 6.33203 11.3281 7 10.5 7C9.67188 7 9 6.33203 9 5.5Z" fill="black"/>
</svg>
