<svg width="28" height="41" viewBox="0 0 28 41" fill="none" xmlns="http://www.w3.org/2000/svg">
<path fill-rule="evenodd" clip-rule="evenodd" d="M13 16.8887C10.7 16.8887 8.69995 14.9786 8.69995 12.5659C8.69995 10.1532 10.6 8.24316 13 8.24316C15.4 8.24316 17.3 10.1532 17.3 12.5659C17.3 14.9786 15.3 16.8887 13 16.8887ZM13 0C5.8 0 0 5.83069 0 13.0688C0 14.7778 0.8 17.291 2.1 20.0053C3.4 22.8201 5.1 25.836 6.8 28.5503C9.8 33.4762 12.4 37.0952 13.1 38C13.8 37.0952 16.4 33.3757 19.4 28.5503C21.2 25.7354 22.9 22.7196 24.1 20.0053C25.3 17.291 26 14.7778 26 13.0688C26 5.83069 20.2 0 13 0Z" transform="translate(1 1)" stroke="#3C3950" stroke-width="2"/>
</svg>
