<svg width="16" height="13" viewBox="0 0 16 13" fill="none" xmlns="http://www.w3.org/2000/svg">
<path fill-rule="evenodd" clip-rule="evenodd" d="M7.26172 0L0 4.53906L0.53125 5.38281L1.26562 4.92578V6.76562L0.496094 6.59766L0.285156 7.57422L4.92188 8.58594L0.28125 9.59766L0.496094 10.5703L7.26172 9.09766H7.26562L9.60938 8.58594L14.2461 7.57422L14.0312 6.60156L13.2656 6.76562V4.8125L14.0039 5.26562L14.5273 4.40625L7.26172 0ZM7.26953 1.17188L12.2656 4.20703V6.98438L7.26562 8.07422L2.26562 6.98438V4.30078L7.26953 1.17188ZM6.26562 3.21094L7.26562 2.58594L8.26562 3.21094V4.58594H6.26562V3.21094ZM11.9531 9.09766L9.60938 9.60938L14.0352 10.5742L14.2461 9.59766L11.9531 9.09766ZM1.26562 11.4297L2.26562 11.2109V11.5859H12.2656V11.2109L13.2656 11.4297V12.5859H1.26562V11.4297Z" transform="translate(0.734375 0.414062)" fill="black"/>
</svg>
